<svg width="315" height="60" viewBox="0 0 315 60" fill="none" xmlns="http://www.w3.org/2000/svg">
<rect x="1" y="1" width="313" height="58" rx="19" stroke="#A259FF" stroke-width="2"/>
<path fill-rule="evenodd" clip-rule="evenodd" d="M117.5 30C117.5 29.6548 117.78 29.375 118.125 29.375H131.875C132.22 29.375 132.5 29.6548 132.5 30C132.5 30.3452 132.22 30.625 131.875 30.625H118.125C117.78 30.625 117.5 30.3452 117.5 30Z" fill="#A259FF"/>
<path fill-rule="evenodd" clip-rule="evenodd" d="M125 22.5C125.345 22.5 125.625 22.7798 125.625 23.125V36.875C125.625 37.2202 125.345 37.5 125 37.5C124.655 37.5 124.375 37.2202 124.375 36.875V23.125C124.375 22.7798 124.655 22.5 125 22.5Z" fill="#A259FF"/>
<path d="M156.702 26.216H151.006V28.904H155.502V30.68H151.006V35H148.798V24.44H156.702V26.216ZM161.206 26.84C162.017 26.84 162.726 27.0053 163.334 27.336C163.953 27.6667 164.433 28.1413 164.774 28.76C165.126 29.3787 165.302 30.1253 165.302 31C165.302 31.864 165.126 32.6107 164.774 33.24C164.433 33.8587 163.953 34.3333 163.334 34.664C162.726 34.9947 162.017 35.16 161.206 35.16C160.406 35.16 159.697 34.9947 159.078 34.664C158.46 34.3333 157.974 33.8587 157.622 33.24C157.281 32.6107 157.11 31.864 157.11 31C157.11 30.1253 157.281 29.3787 157.622 28.76C157.974 28.1413 158.46 27.6667 159.078 27.336C159.697 27.0053 160.406 26.84 161.206 26.84ZM161.206 28.472C160.801 28.472 160.454 28.568 160.166 28.76C159.889 28.9413 159.676 29.2187 159.526 29.592C159.377 29.9653 159.302 30.4347 159.302 31C159.302 31.5653 159.377 32.0347 159.526 32.408C159.676 32.7813 159.889 33.064 160.166 33.256C160.454 33.4373 160.801 33.528 161.206 33.528C161.601 33.528 161.937 33.4373 162.214 33.256C162.502 33.064 162.721 32.7813 162.87 32.408C163.02 32.0347 163.094 31.5653 163.094 31C163.094 30.4347 163.02 29.9653 162.87 29.592C162.721 29.2187 162.502 28.9413 162.214 28.76C161.937 28.568 161.601 28.472 161.206 28.472ZM169.296 23.496V32.536C169.296 32.9093 169.36 33.1707 169.488 33.32C169.616 33.4693 169.83 33.544 170.128 33.544C170.31 33.544 170.459 33.5333 170.576 33.512C170.694 33.48 170.843 33.4373 171.024 33.384L170.832 34.824C170.651 34.9307 170.422 35.0107 170.144 35.064C169.878 35.128 169.611 35.16 169.344 35.16C168.566 35.16 167.995 34.9733 167.632 34.6C167.28 34.216 167.104 33.608 167.104 32.776V23.496H169.296ZM174.406 23.496V32.536C174.406 32.9093 174.47 33.1707 174.598 33.32C174.726 33.4693 174.939 33.544 175.238 33.544C175.419 33.544 175.568 33.5333 175.686 33.512C175.803 33.48 175.952 33.4373 176.134 33.384L175.942 34.824C175.76 34.9307 175.531 35.0107 175.254 35.064C174.987 35.128 174.72 35.16 174.454 35.16C173.675 35.16 173.104 34.9733 172.742 34.6C172.39 34.216 172.214 33.608 172.214 32.776V23.496H174.406ZM181.003 26.84C181.814 26.84 182.523 27.0053 183.131 27.336C183.75 27.6667 184.23 28.1413 184.571 28.76C184.923 29.3787 185.099 30.1253 185.099 31C185.099 31.864 184.923 32.6107 184.571 33.24C184.23 33.8587 183.75 34.3333 183.131 34.664C182.523 34.9947 181.814 35.16 181.003 35.16C180.203 35.16 179.494 34.9947 178.875 34.664C178.256 34.3333 177.771 33.8587 177.419 33.24C177.078 32.6107 176.907 31.864 176.907 31C176.907 30.1253 177.078 29.3787 177.419 28.76C177.771 28.1413 178.256 27.6667 178.875 27.336C179.494 27.0053 180.203 26.84 181.003 26.84ZM181.003 28.472C180.598 28.472 180.251 28.568 179.963 28.76C179.686 28.9413 179.472 29.2187 179.323 29.592C179.174 29.9653 179.099 30.4347 179.099 31C179.099 31.5653 179.174 32.0347 179.323 32.408C179.472 32.7813 179.686 33.064 179.963 33.256C180.251 33.4373 180.598 33.528 181.003 33.528C181.398 33.528 181.734 33.4373 182.011 33.256C182.299 33.064 182.518 32.7813 182.667 32.408C182.816 32.0347 182.891 31.5653 182.891 31C182.891 30.4347 182.816 29.9653 182.667 29.592C182.518 29.2187 182.299 28.9413 182.011 28.76C181.734 28.568 181.398 28.472 181.003 28.472ZM197.035 27H199.371L196.811 35H194.283L192.539 29.56L190.859 35H188.331L185.771 27H188.107L189.707 33.128L191.483 27H193.659L195.451 33.128L197.035 27Z" fill="white"/>
</svg>
